# xmcd
#
# Track frame offsets:
#	150
#	23240
#	38710
#	58797
#	73985
#	89270
#	104387
#	117845
#	132987
#	151885
#	169307
#	198565
#	217815
#	248962
#	287627
#
# Disc length: 4117 seconds
#
# Revision: 0
# Processed by: cddbd v1.5.2PL0 Copyright (c) Steve Scherf et al.
# Submitted via: EasyCDDAExtractor 10.0.3.1
#
DISCID=da10130f
DTITLE=Various Artist - FRYDERYK'95
DYEAR=1900
DGENRE=
TTITLE0=KASIA KOWALSKA - A To Co Mam...
TTITLE1=VARIUS MANX - Pocałuj Noc
TTITLE2=EDYTA GÓRNIAK - Dotyk
TTITLE3=KAYAH - Jestem Kamieniem
TTITLE4=GRZEGORZ TURNAU - Między Ciszą A Ciszą
TTITLE5=EDYTA BARTOSIEWICZ - Szał
TTITLE6=LIROY - Korrba
TTITLE7=SZWAGIERKOLASKA - Apaszem Stasiek Był
TTITLE8=KAZIK - Łysy Jedzie Do Moskwy
TTITLE9=QUEEN - A Winter's Tale
TTITLE10=ZBIGNIEW NAMYSŁOWSKI QUARTET and ZAKOPANE HIGHLANDERS BAND - Skarga Pod
TTITLE10=hala
TTITLE11=JANUSZ OLEJNICZAK - Nokturn Cis-moll Op. Posth
TTITLE12=HENRYK MIKOŁAJ GÓRECKI II KWARTET SMYCZKOWY - Quasi Una Fantasia
TTITLE13=JANUSZ OLEJNICZAK - Fryderyk Chopin II Koncert Fortepianowy F-Moll
TTITLE14=ZBIGNIEW PREISNER - Enfer
EXTD=
EXTT0=
EXTT1=
EXTT2=
EXTT3=
EXTT4=
EXTT5=
EXTT6=
EXTT7=
EXTT8=
EXTT9=
EXTT10=
EXTT11=
EXTT12=
EXTT13=
EXTT14=
PLAYORDER=
